<mxfile host="65bd71144e">
    <diagram id="6gqwJSyktsKS6HF_fqXz" name="Page-1">
        <mxGraphModel dx="576" dy="475" grid="1" gridSize="10" guides="1" tooltips="1" connect="1" arrows="1" fold="1" page="1" pageScale="1" pageWidth="850" pageHeight="1100" math="0" shadow="0">
            <root>
                <mxCell id="0"/>
                <mxCell id="1" parent="0"/>
                <mxCell id="2" value="&lt;h4&gt;&lt;font face=&quot;Courier New&quot;&gt;Start&lt;/font&gt;&lt;/h4&gt;" style="ellipse;whiteSpace=wrap;html=1;" vertex="1" parent="1">
                    <mxGeometry x="280" width="120" height="80" as="geometry"/>
                </mxCell>
                <mxCell id="3" value="" style="endArrow=classic;html=1;fontFamily=Courier New;" edge="1" parent="1">
                    <mxGeometry width="50" height="50" relative="1" as="geometry">
                        <mxPoint x="340" y="80" as="sourcePoint"/>
                        <mxPoint x="340" y="120" as="targetPoint"/>
                    </mxGeometry>
                </mxCell>
                <mxCell id="4" value="Ask users to input two integer values&lt;br&gt;m, n&amp;nbsp;" style="rounded=1;whiteSpace=wrap;html=1;fontFamily=Courier New;" vertex="1" parent="1">
                    <mxGeometry x="200" y="120" width="280" height="80" as="geometry"/>
                </mxCell>
                <mxCell id="5" value="" style="endArrow=classic;html=1;fontFamily=Courier New;exitX=0.5;exitY=1;exitDx=0;exitDy=0;" edge="1" parent="1" source="4">
                    <mxGeometry width="50" height="50" relative="1" as="geometry">
                        <mxPoint x="270" y="250" as="sourcePoint"/>
                        <mxPoint x="340" y="260" as="targetPoint"/>
                    </mxGeometry>
                </mxCell>
                <mxCell id="6" value="while n &amp;lt; m:&amp;nbsp;" style="shape=hexagon;perimeter=hexagonPerimeter2;whiteSpace=wrap;html=1;fixedSize=1;fontFamily=Courier New;" vertex="1" parent="1">
                    <mxGeometry x="225" y="260" width="230" height="80" as="geometry"/>
                </mxCell>
                <mxCell id="7" value="" style="endArrow=classic;html=1;fontFamily=Courier New;exitX=0;exitY=0.5;exitDx=0;exitDy=0;" edge="1" parent="1" source="6">
                    <mxGeometry width="50" height="50" relative="1" as="geometry">
                        <mxPoint x="270" y="250" as="sourcePoint"/>
                        <mxPoint x="80" y="442" as="targetPoint"/>
                        <Array as="points">
                            <mxPoint x="80" y="300"/>
                        </Array>
                    </mxGeometry>
                </mxCell>
                <mxCell id="8" value="no" style="text;html=1;align=center;verticalAlign=middle;resizable=0;points=[];autosize=1;strokeColor=none;fillColor=none;fontFamily=Courier New;" vertex="1" parent="1">
                    <mxGeometry x="80" y="260" width="40" height="30" as="geometry"/>
                </mxCell>
                <mxCell id="9" value="" style="endArrow=classic;html=1;fontFamily=Courier New;exitX=1;exitY=0.5;exitDx=0;exitDy=0;" edge="1" parent="1" source="6">
                    <mxGeometry width="50" height="50" relative="1" as="geometry">
                        <mxPoint x="270" y="350" as="sourcePoint"/>
                        <mxPoint x="570" y="440" as="targetPoint"/>
                        <Array as="points">
                            <mxPoint x="570" y="300"/>
                        </Array>
                    </mxGeometry>
                </mxCell>
                <mxCell id="10" value="yes" style="edgeLabel;html=1;align=center;verticalAlign=middle;resizable=0;points=[];fontFamily=Courier New;" vertex="1" connectable="0" parent="9">
                    <mxGeometry x="-0.3176" y="9" relative="1" as="geometry">
                        <mxPoint y="-16" as="offset"/>
                    </mxGeometry>
                </mxCell>
                <mxCell id="11" value="numbers.append(n)&lt;br&gt;n= int(input(&quot;Enter a value: &quot;))" style="rounded=1;whiteSpace=wrap;html=1;fontFamily=Courier New;" vertex="1" parent="1">
                    <mxGeometry x="490" y="440" width="160" height="100" as="geometry"/>
                </mxCell>
                <mxCell id="12" value="" style="endArrow=classic;html=1;fontFamily=Courier New;exitX=1;exitY=0.5;exitDx=0;exitDy=0;entryX=1;entryY=0.5;entryDx=0;entryDy=0;" edge="1" parent="1" source="11" target="4">
                    <mxGeometry width="50" height="50" relative="1" as="geometry">
                        <mxPoint x="410" y="340" as="sourcePoint"/>
                        <mxPoint x="460" y="290" as="targetPoint"/>
                        <Array as="points">
                            <mxPoint x="720" y="490"/>
                            <mxPoint x="720" y="160"/>
                        </Array>
                    </mxGeometry>
                </mxCell>
                <mxCell id="13" value="numbers.append(n)" style="rounded=1;whiteSpace=wrap;html=1;fontFamily=Courier New;" vertex="1" parent="1">
                    <mxGeometry x="20" y="440" width="120" height="90" as="geometry"/>
                </mxCell>
                <mxCell id="14" value="" style="endArrow=classic;html=1;fontFamily=Courier New;exitX=1;exitY=0.5;exitDx=0;exitDy=0;" edge="1" parent="1" source="13" target="15">
                    <mxGeometry width="50" height="50" relative="1" as="geometry">
                        <mxPoint x="160" y="600" as="sourcePoint"/>
                        <mxPoint x="240" y="485" as="targetPoint"/>
                    </mxGeometry>
                </mxCell>
                <mxCell id="15" value="for num in numbers[-1]:&lt;br&gt;print(m, num)" style="rounded=1;whiteSpace=wrap;html=1;fontFamily=Courier New;" vertex="1" parent="1">
                    <mxGeometry x="225" y="440" width="225" height="90" as="geometry"/>
                </mxCell>
                <mxCell id="17" value="" style="endArrow=classic;html=1;fontFamily=Courier New;exitX=0.5;exitY=1;exitDx=0;exitDy=0;" edge="1" parent="1">
                    <mxGeometry width="50" height="50" relative="1" as="geometry">
                        <mxPoint x="339.5" y="530" as="sourcePoint"/>
                        <mxPoint x="339.5" y="590" as="targetPoint"/>
                    </mxGeometry>
                </mxCell>
                <mxCell id="18" value="&lt;h4&gt;&lt;font face=&quot;Courier New&quot;&gt;End&lt;/font&gt;&lt;/h4&gt;" style="ellipse;whiteSpace=wrap;html=1;" vertex="1" parent="1">
                    <mxGeometry x="280" y="590" width="120" height="80" as="geometry"/>
                </mxCell>
            </root>
        </mxGraphModel>
    </diagram>
</mxfile>